<svg xmlns="http://www.w3.org/2000/svg" width="3755" height="1110" viewBox="0 0 3755 1110" version="1.1"><path d="M 505.500 0.928 C 499.999 2.255, 489.205 7.983, 483.597 12.551 C 474.897 19.638, 467.414 31.310, 464.076 43 C 463.370 45.475, 462.389 48.534, 461.896 49.797 C 461.403 51.060, 461 53.171, 461 54.488 C 461 55.805, 460.600 57.129, 460.110 57.432 C 459.621 57.734, 458.999 59.448, 458.728 61.241 C 458.457 63.033, 457.022 69, 455.539 74.500 C 451.996 87.636, 450.967 91.826, 450.317 95.759 C 450.021 97.552, 449.379 99.266, 448.890 99.568 C 448.400 99.871, 448 101.415, 448 103 C 448 104.585, 447.600 106.129, 447.110 106.432 C 446.621 106.734, 446.003 108.448, 445.736 110.241 C 445.469 112.033, 443.844 118.799, 442.125 125.276 C 440.406 131.752, 439 137.193, 439 137.366 C 439 137.538, 437.087 138.249, 434.750 138.944 C 432.413 139.639, 429.466 140.611, 428.203 141.104 C 426.940 141.597, 424.829 142, 423.512 142 C 422.195 142, 420.840 142.450, 420.500 143 C 420.160 143.550, 418.585 144, 417 144 C 415.415 144, 413.871 144.400, 413.568 144.890 C 413.266 145.379, 411.552 145.997, 409.759 146.264 C 406.777 146.707, 402.803 147.740, 385.500 152.571 C 382.200 153.492, 378.033 154.465, 376.241 154.734 C 374.448 155.002, 372.734 155.621, 372.432 156.110 C 372.129 156.600, 370.585 157, 369 157 C 367.415 157, 365.840 157.450, 365.500 158 C 365.160 158.550, 363.585 159, 362 159 C 360.415 159, 358.840 159.450, 358.500 160 C 358.160 160.550, 356.805 161, 355.488 161 C 354.171 161, 352.060 161.403, 350.797 161.896 C 349.534 162.389, 346.700 163.275, 344.500 163.866 C 334.367 166.589, 324.279 169.178, 322 169.642 C 320.625 169.922, 318.600 170.533, 317.500 171 C 316.400 171.467, 314.375 172.077, 313 172.355 C 310.641 172.832, 307.095 173.787, 299 176.123 C 297.075 176.678, 293.925 177.510, 292 177.970 C 290.075 178.430, 285.800 179.570, 282.500 180.503 C 279.200 181.436, 273.125 183.085, 269 184.169 C 264.875 185.252, 259.925 186.599, 258 187.162 C 256.075 187.725, 253.033 188.419, 251.241 188.704 C 249.448 188.988, 247.734 189.621, 247.432 190.110 C 247.129 190.600, 245.585 191, 244 191 C 242.415 191, 240.840 191.450, 240.500 192 C 240.160 192.550, 238.896 193.007, 237.691 193.015 C 231.208 193.058, 216.937 200.387, 209.675 207.402 C 200.943 215.839, 196.451 223.762, 192.046 238.500 C 190.685 243.056, 191.129 260.222, 192.771 266.500 C 193.346 268.700, 195.020 275, 196.491 280.500 C 197.961 286, 199.386 291.625, 199.658 293 C 199.929 294.375, 200.533 296.400, 201 297.500 C 201.467 298.600, 202.077 300.625, 202.355 302 C 202.633 303.375, 203.317 306.075, 203.874 308 C 206.160 315.895, 207.165 319.629, 207.645 322 C 207.923 323.375, 208.519 325.400, 208.968 326.500 C 209.418 327.600, 210.770 332.550, 211.973 337.500 C 213.176 342.450, 214.611 348.075, 215.162 350 C 215.714 351.925, 216.409 354.850, 216.708 356.500 C 217.007 358.150, 217.607 359.951, 218.043 360.502 C 218.857 361.534, 212.447 368.146, 117.043 464.675 C 82.999 499.120, 62.330 520.789, 60.288 524.175 C 58.521 527.104, 56.324 531.750, 55.406 534.500 C 54.488 537.250, 53.346 540.281, 52.868 541.236 C 51.600 543.773, 51.807 562.757, 53.148 566.929 C 55.649 574.704, 60.386 583.699, 65.012 589.453 C 70.807 596.663, 420.634 946.163, 426.691 950.795 C 428.997 952.558, 431.359 954, 431.941 954 C 432.524 954, 433 954.340, 433 954.756 C 433 955.172, 434.462 956.109, 436.250 956.840 C 438.038 957.570, 440.581 958.692, 441.901 959.334 C 445.277 960.973, 473.837 960.906, 477.349 959.250 C 478.807 958.563, 481.238 957.450, 482.750 956.777 C 490.165 953.479, 498.931 945.787, 527.110 917.848 C 696.902 749.506, 743.338 703.211, 744.121 701.500 C 744.625 700.400, 746.827 697.250, 749.015 694.500 C 754.510 687.594, 756.051 684.195, 758.713 673.112 C 759.028 671.798, 761.632 668.423, 764.499 665.612 C 772.841 657.431, 778.114 648.082, 780.918 636.500 C 781.451 634.300, 782.393 630.700, 783.013 628.500 C 783.632 626.300, 784.367 623.375, 784.645 622 C 784.923 620.625, 785.533 618.600, 786 617.500 C 786.467 616.400, 787.077 614.375, 787.355 613 C 787.633 611.625, 788.372 608.700, 788.997 606.500 C 789.622 604.300, 790.517 600.925, 790.987 599 C 791.457 597.075, 793.045 591, 794.515 585.500 C 795.986 580, 797.406 574.375, 797.670 573 C 797.934 571.625, 798.533 569.600, 799 568.500 C 799.467 567.400, 800.108 565.263, 800.425 563.750 C 800.741 562.237, 801.259 559.763, 801.575 558.250 C 801.892 556.737, 802.533 554.600, 803 553.500 C 803.467 552.400, 804.077 550.375, 804.355 549 C 804.633 547.625, 805.308 544.925, 805.854 543 C 807.649 536.671, 814.152 511.553, 814.657 509 C 814.928 507.625, 815.533 505.600, 816 504.500 C 816.467 503.400, 817.077 501.375, 817.355 500 C 817.633 498.625, 818.372 495.700, 818.997 493.500 C 819.622 491.300, 820.517 487.925, 820.987 486 C 821.457 484.075, 823.043 478, 824.512 472.500 C 825.981 467, 827.562 460.925, 828.025 459 C 828.488 457.075, 829.389 453.700, 830.027 451.500 C 830.664 449.300, 831.419 446.033, 831.704 444.241 C 831.988 442.448, 832.621 440.734, 833.110 440.432 C 833.600 440.129, 834 438.585, 834 437 C 834 435.415, 834.400 433.871, 834.890 433.568 C 835.379 433.266, 836.003 431.552, 836.276 429.759 C 836.550 427.967, 838.436 420.200, 840.468 412.500 C 842.500 404.800, 844.385 397.375, 844.657 396 C 844.928 394.625, 845.533 392.600, 846 391.500 C 846.467 390.400, 847.077 388.375, 847.355 387 C 847.633 385.625, 848.372 382.700, 848.997 380.500 C 849.622 378.300, 850.523 374.925, 851 373 C 851.477 371.075, 852.309 367.925, 852.849 366 C 856.014 354.720, 861.297 334.024, 861.723 331.241 C 861.997 329.448, 862.621 327.734, 863.110 327.432 C 863.600 327.129, 864 325.585, 864 324 C 864 322.415, 864.400 320.871, 864.890 320.568 C 865.379 320.266, 866.003 318.552, 866.277 316.759 C 866.551 314.967, 868.445 307.200, 870.485 299.500 C 872.526 291.800, 874.410 284.375, 874.673 283 C 874.936 281.625, 875.533 279.600, 876 278.500 C 876.467 277.400, 877.077 275.375, 877.355 274 C 877.633 272.625, 878.373 269.700, 879 267.500 C 879.627 265.300, 880.367 262.375, 880.645 261 C 880.923 259.625, 881.533 257.600, 882 256.500 C 882.467 255.400, 883.062 253.375, 883.323 252 C 884.654 244.970, 891.310 219.990, 893.128 215.203 C 893.608 213.940, 894 211.829, 894 210.512 C 894 209.195, 894.400 207.871, 894.890 207.568 C 895.379 207.266, 896.003 205.552, 896.277 203.759 C 896.551 201.967, 898.445 194.200, 900.485 186.500 C 902.526 178.800, 904.410 171.375, 904.673 170 C 904.936 168.625, 905.533 166.600, 906 165.500 C 907.747 161.386, 908.307 157.169, 908.707 145.109 C 908.970 137.177, 908.737 132.337, 908.059 131.659 C 907.477 131.077, 907 129.803, 907 128.829 C 907 125.543, 902.054 115.843, 897.771 110.726 C 892.177 104.045, 882.013 95.730, 875.621 92.605 C 870.914 90.304, 862.121 87.489, 856 86.325 C 854.625 86.063, 852.600 85.467, 851.500 85 C 850.400 84.533, 848.375 83.923, 847 83.645 C 845.625 83.367, 842.700 82.627, 840.500 82 C 838.300 81.373, 835.375 80.633, 834 80.355 C 832.625 80.077, 830.600 79.467, 829.500 79 C 828.400 78.533, 826.375 77.934, 825 77.670 C 823.625 77.406, 818 75.986, 812.500 74.515 C 807 73.045, 800.925 71.457, 799 70.987 C 797.075 70.517, 793.700 69.622, 791.500 68.997 C 789.300 68.372, 786.375 67.633, 785 67.355 C 783.625 67.077, 781.600 66.467, 780.500 66 C 779.400 65.533, 777.375 64.923, 776 64.645 C 774.625 64.367, 771.925 63.686, 770 63.132 C 765.455 61.824, 746.231 56.995, 743 56.349 C 741.625 56.074, 739.600 55.467, 738.500 55 C 737.400 54.533, 735.375 53.923, 734 53.645 C 732.625 53.367, 729.700 52.627, 727.500 52 C 725.300 51.373, 722.375 50.633, 721 50.355 C 719.625 50.077, 717.600 49.467, 716.500 49 C 715.400 48.533, 713.375 47.929, 712 47.658 C 710.625 47.386, 705 45.961, 699.500 44.491 C 694 43.020, 687.925 41.438, 686 40.975 C 684.075 40.512, 680.700 39.622, 678.500 38.997 C 676.300 38.372, 673.375 37.633, 672 37.355 C 670.625 37.077, 668.600 36.467, 667.500 36 C 666.400 35.533, 664.375 34.923, 663 34.645 C 661.625 34.367, 658.925 33.692, 657 33.146 C 652.944 31.996, 627.166 25.251, 622 23.988 C 620.075 23.518, 616.700 22.622, 614.500 21.997 C 612.300 21.372, 609.375 20.633, 608 20.355 C 606.625 20.077, 604.600 19.467, 603.500 19 C 602.400 18.533, 600.375 17.937, 599 17.676 C 597.625 17.414, 592 15.970, 586.500 14.466 C 581 12.962, 574.925 11.372, 573 10.932 C 571.075 10.493, 567.700 9.622, 565.500 8.997 C 563.300 8.372, 560.375 7.633, 559 7.355 C 557.625 7.077, 555.600 6.467, 554.500 6 C 553.400 5.533, 551.375 4.923, 550 4.645 C 548.625 4.367, 545.700 3.628, 543.500 3.003 C 541.300 2.378, 537.700 1.467, 535.500 0.977 C 530.771 -0.075, 509.802 -0.109, 505.500 0.928 M 510.098 28.646 C 502.816 31.822, 495.444 39.573, 493.596 46 C 491.211 54.293, 485.695 76.012, 485.276 78.759 C 485.003 80.552, 484.379 82.266, 483.890 82.568 C 483.400 82.871, 483 84.415, 483 86 C 483 87.585, 482.600 89.129, 482.110 89.432 C 481.621 89.734, 480.988 91.448, 480.704 93.241 C 480.419 95.033, 479.664 98.300, 479.027 100.500 C 478.389 102.700, 477.507 106.075, 477.068 108 C 476.628 109.925, 475.040 116, 473.537 121.500 C 472.035 127, 470.429 133.075, 469.969 135 C 469.509 136.925, 468.622 140.300, 467.997 142.500 C 467.372 144.700, 466.633 147.625, 466.355 149 C 466.077 150.375, 465.467 152.400, 465 153.500 C 464.533 154.600, 463.928 156.625, 463.657 158 C 463.152 160.553, 456.649 185.671, 454.854 192 C 454.308 193.925, 453.633 196.625, 453.355 198 C 453.077 199.375, 452.467 201.400, 452 202.500 C 451.533 203.600, 450.892 205.737, 450.575 207.250 C 450.259 208.762, 449.741 211.237, 449.425 212.750 C 449.108 214.262, 448.467 216.400, 448 217.500 C 447.533 218.600, 446.934 220.625, 446.670 222 C 446.406 223.375, 444.986 229, 443.515 234.500 C 442.045 240, 440.457 246.075, 439.987 248 C 439.517 249.925, 438.622 253.300, 437.997 255.500 C 437.372 257.700, 436.633 260.625, 436.355 262 C 436.077 263.375, 435.467 265.400, 435 266.500 C 434.533 267.600, 433.923 269.625, 433.645 271 C 433.367 272.375, 432.686 275.075, 432.132 277 C 431.578 278.925, 429.944 285.225, 428.500 291 C 427.056 296.775, 425.422 303.075, 424.868 305 C 424.314 306.925, 423.633 309.625, 423.355 311 C 423.077 312.375, 422.467 314.400, 422 315.500 C 421.533 316.600, 420.892 318.738, 420.575 320.250 C 420.259 321.763, 419.741 324.238, 419.425 325.750 C 419.108 327.262, 418.467 329.400, 418 330.500 C 417.533 331.600, 416.934 333.625, 416.670 335 C 416.406 336.375, 414.986 342, 413.515 347.500 C 412.045 353, 410.457 359.075, 409.987 361 C 409.517 362.925, 408.611 366.300, 407.973 368.500 C 407.336 370.700, 406.581 373.967, 406.296 375.759 C 406.012 377.552, 405.379 379.266, 404.890 379.568 C 404.400 379.871, 404 381.195, 404 382.512 C 404 383.829, 403.597 385.940, 403.104 387.203 C 402.078 389.835, 400.936 393.994, 397.942 406 C 396.776 410.675, 395.382 416.075, 394.845 418 C 394.307 419.925, 393.477 423.075, 393 425 C 392.523 426.925, 391.622 430.300, 390.997 432.500 C 390.372 434.700, 389.633 437.625, 389.355 439 C 389.077 440.375, 388.467 442.400, 388 443.500 C 387.533 444.600, 386.929 446.625, 386.658 448 C 386.386 449.375, 384.961 455, 383.491 460.500 C 382.020 466, 380.438 472.075, 379.975 474 C 379.512 475.925, 378.622 479.300, 377.997 481.500 C 377.372 483.700, 376.633 486.625, 376.355 488 C 376.077 489.375, 375.467 491.400, 375 492.500 C 374.533 493.600, 373.923 495.625, 373.645 497 C 373.367 498.375, 372.628 501.300, 372.003 503.500 C 371.378 505.700, 370.503 509.075, 370.058 511 C 369.614 512.925, 367.894 519.727, 366.238 526.116 C 363.530 536.562, 363.343 538.225, 364.386 542.616 C 367.614 556.210, 374.486 561.309, 397.500 567.187 C 399.700 567.749, 402.534 568.611, 403.797 569.104 C 405.060 569.597, 407.171 570, 408.488 570 C 409.805 570, 411.129 570.400, 411.432 570.890 C 411.734 571.379, 413.448 572.012, 415.241 572.296 C 417.033 572.581, 420.075 573.264, 422 573.813 C 428.241 575.596, 453.428 582.146, 456 582.655 C 457.375 582.928, 459.400 583.533, 460.500 584 C 461.600 584.467, 463.738 585.108, 465.250 585.425 C 466.762 585.741, 469.238 586.259, 470.750 586.575 C 472.262 586.892, 474.400 587.533, 475.500 588 C 476.600 588.467, 478.625 589.072, 480 589.343 C 482.553 589.848, 507.671 596.351, 514 598.146 C 515.925 598.692, 518.625 599.367, 520 599.645 C 521.375 599.923, 523.400 600.533, 524.500 601 C 525.600 601.467, 527.625 602.077, 529 602.355 C 530.375 602.633, 533.300 603.372, 535.500 603.997 C 537.700 604.622, 541.075 605.512, 543 605.975 C 544.925 606.438, 551 608.020, 556.500 609.491 C 562 610.961, 567.625 612.386, 569 612.658 C 570.375 612.929, 572.400 613.533, 573.500 614 C 574.600 614.467, 576.625 615.077, 578 615.355 C 579.375 615.633, 582.300 616.372, 584.500 616.997 C 586.700 617.622, 590.075 618.518, 592 618.988 C 597.166 620.251, 622.944 626.996, 627 628.146 C 628.925 628.692, 631.625 629.367, 633 629.645 C 634.375 629.923, 636.400 630.533, 637.500 631 C 638.600 631.467, 640.625 632.077, 642 632.355 C 643.375 632.633, 646.300 633.372, 648.500 633.997 C 650.700 634.622, 654.075 635.512, 656 635.975 C 657.925 636.438, 664 638.019, 669.500 639.488 C 675 640.957, 681.075 642.543, 683 643.013 C 684.925 643.483, 688.188 644.347, 690.250 644.934 C 692.313 645.520, 695.688 646.480, 697.750 647.066 C 699.813 647.653, 703.075 648.510, 705 648.970 C 706.925 649.430, 711.109 650.525, 714.299 651.403 C 723.885 654.043, 731.462 653.204, 738.260 648.749 C 739.728 647.787, 741.224 647, 741.583 647 C 742.752 647, 747.926 640.590, 749.643 637.015 C 751.239 633.692, 752.540 629.459, 753.645 624 C 753.923 622.625, 754.533 620.600, 755 619.500 C 755.467 618.400, 756.077 616.375, 756.355 615 C 756.633 613.625, 757.302 610.925, 757.842 609 C 758.381 607.075, 759.776 601.675, 760.942 597 C 763.936 584.994, 765.078 580.835, 766.104 578.203 C 766.597 576.940, 767 574.829, 767 573.512 C 767 572.195, 767.450 570.840, 768 570.500 C 768.550 570.160, 769 568.585, 769 567 C 769 565.415, 769.400 563.871, 769.890 563.568 C 770.379 563.266, 771.021 561.552, 771.317 559.759 C 771.953 555.907, 772.921 551.947, 776.512 538.500 C 777.981 533, 779.562 526.925, 780.025 525 C 780.488 523.075, 781.389 519.700, 782.027 517.500 C 782.664 515.300, 783.419 512.033, 783.704 510.241 C 783.988 508.448, 784.621 506.734, 785.110 506.432 C 785.600 506.129, 786 504.585, 786 503 C 786 501.415, 786.400 499.871, 786.890 499.568 C 787.379 499.266, 787.999 497.552, 788.269 495.759 C 788.538 493.967, 790.428 486.200, 792.468 478.500 C 794.508 470.800, 796.397 463.375, 796.664 462 C 796.932 460.625, 797.533 458.600, 798 457.500 C 798.467 456.400, 799.077 454.375, 799.355 453 C 799.633 451.625, 800.372 448.700, 800.997 446.500 C 801.622 444.300, 802.517 440.925, 802.987 439 C 803.457 437.075, 805.043 431, 806.512 425.500 C 807.981 420, 809.562 413.925, 810.025 412 C 810.488 410.075, 811.389 406.700, 812.027 404.500 C 812.664 402.300, 813.419 399.033, 813.704 397.241 C 813.988 395.448, 814.621 393.734, 815.110 393.432 C 815.600 393.129, 816 391.585, 816 390 C 816 388.415, 816.400 386.871, 816.890 386.568 C 817.379 386.266, 818.007 384.552, 818.285 382.759 C 818.563 380.967, 820.453 373.200, 822.485 365.500 C 824.517 357.800, 826.398 350.375, 826.665 349 C 826.932 347.625, 827.533 345.600, 828 344.500 C 828.467 343.400, 829.077 341.375, 829.355 340 C 829.633 338.625, 830.372 335.700, 830.997 333.500 C 831.622 331.300, 832.517 327.925, 832.987 326 C 833.457 324.075, 835.045 318, 836.515 312.500 C 837.986 307, 839.406 301.375, 839.670 300 C 839.934 298.625, 840.533 296.600, 841 295.500 C 841.896 293.390, 842.788 289.647, 843.682 284.241 C 843.978 282.448, 844.621 280.734, 845.110 280.432 C 845.600 280.129, 846 278.585, 846 277 C 846 275.415, 846.400 273.871, 846.890 273.568 C 847.379 273.266, 848.003 271.552, 848.276 269.759 C 848.550 267.967, 850.436 260.200, 852.468 252.500 C 854.500 244.800, 856.385 237.375, 856.657 236 C 856.928 234.625, 857.533 232.600, 858 231.500 C 858.467 230.400, 859.077 228.375, 859.355 227 C 859.633 225.625, 860.372 222.700, 860.997 220.500 C 861.622 218.300, 862.508 214.925, 862.967 213 C 863.738 209.766, 865.293 203.972, 869.545 188.500 C 870.451 185.200, 871.570 180.925, 872.030 179 C 872.490 177.075, 873.389 173.700, 874.027 171.500 C 874.664 169.300, 875.419 166.033, 875.704 164.241 C 875.988 162.448, 876.621 160.734, 877.110 160.432 C 877.600 160.129, 878 158.554, 878 156.931 C 878 155.218, 878.839 153.262, 880 152.268 C 881.513 150.973, 881.996 149.330, 881.985 145.528 C 881.958 136.371, 877.941 128.586, 870.318 122.917 C 861.353 116.249, 859.198 115, 856.655 115 C 855.260 115, 853.840 114.550, 853.500 114 C 853.160 113.450, 851.585 113, 850 113 C 848.415 113, 846.871 112.600, 846.568 112.110 C 846.266 111.621, 844.552 110.983, 842.759 110.692 C 840.967 110.401, 836.575 109.426, 833 108.527 C 829.425 107.627, 824.925 106.495, 823 106.012 C 821.075 105.528, 817.700 104.611, 815.500 103.973 C 813.300 103.336, 810.033 102.581, 808.241 102.296 C 806.448 102.012, 804.734 101.379, 804.432 100.890 C 804.129 100.400, 802.585 100, 801 100 C 799.415 100, 797.871 99.600, 797.568 99.110 C 797.266 98.621, 795.552 97.997, 793.759 97.724 C 791.967 97.450, 784.200 95.564, 776.500 93.532 C 768.800 91.500, 761.375 89.615, 760 89.343 C 758.625 89.072, 756.600 88.467, 755.500 88 C 754.400 87.533, 752.263 86.892, 750.750 86.575 C 749.237 86.259, 746.763 85.741, 745.250 85.425 C 743.737 85.108, 741.600 84.467, 740.500 84 C 739.400 83.533, 737.375 82.932, 736 82.665 C 733.409 82.162, 708.158 75.625, 702 73.862 C 700.075 73.312, 697.375 72.633, 696 72.355 C 694.625 72.077, 692.600 71.467, 691.500 71 C 690.400 70.533, 688.375 69.923, 687 69.645 C 685.625 69.367, 682.700 68.628, 680.500 68.003 C 678.300 67.378, 674.925 66.488, 673 66.025 C 671.075 65.562, 665 63.969, 659.500 62.486 C 654 61.002, 648.033 59.561, 646.241 59.284 C 644.448 59.006, 642.734 58.379, 642.432 57.890 C 642.129 57.400, 640.360 57, 638.500 57 C 636.640 57, 634.840 56.550, 634.500 56 C 634.160 55.450, 632.585 55, 631 55 C 629.415 55, 627.871 54.600, 627.568 54.110 C 627.266 53.621, 625.552 53.001, 623.759 52.731 C 621.967 52.462, 616 51.014, 610.500 49.514 C 605 48.014, 598.925 46.415, 597 45.960 C 595.075 45.505, 591.700 44.611, 589.500 43.973 C 587.300 43.336, 584.033 42.581, 582.241 42.296 C 580.448 42.012, 578.734 41.379, 578.432 40.890 C 578.129 40.400, 576.585 40, 575 40 C 573.415 40, 571.871 39.600, 571.568 39.110 C 571.266 38.621, 569.552 37.997, 567.759 37.723 C 565.967 37.449, 558.200 35.544, 550.500 33.491 C 542.800 31.438, 535.033 29.538, 533.241 29.269 C 531.448 28.999, 529.734 28.379, 529.432 27.890 C 528.537 26.441, 513.836 27.017, 510.098 28.646 M 426 172 C 425.175 172.533, 423.289 172.976, 421.809 172.985 C 420.329 172.993, 418.871 173.400, 418.568 173.890 C 418.266 174.379, 416.552 175.012, 414.759 175.296 C 412.967 175.581, 409.925 176.280, 408 176.851 C 401.448 178.791, 388.467 182.342, 374 186.151 C 367.675 187.816, 361.150 189.563, 359.500 190.033 C 350.876 192.489, 348.281 193.184, 346 193.645 C 344.625 193.923, 342.600 194.515, 341.500 194.961 C 340.400 195.407, 337.700 196.232, 335.500 196.793 C 333.300 197.355, 328.800 198.543, 325.500 199.434 C 322.200 200.325, 317.813 201.491, 315.750 202.027 C 313.688 202.562, 310.087 203.497, 307.750 204.104 C 305.413 204.711, 302.466 205.611, 301.203 206.104 C 299.940 206.597, 297.829 207, 296.512 207 C 295.195 207, 293.840 207.450, 293.500 208 C 293.160 208.550, 291.585 209, 290 209 C 288.415 209, 286.871 209.400, 286.568 209.890 C 286.266 210.379, 284.552 211.012, 282.759 211.296 C 280.967 211.581, 277.925 212.269, 276 212.825 C 266.533 215.561, 252.145 219.266, 249.241 219.716 C 247.448 219.994, 245.734 220.621, 245.432 221.110 C 245.129 221.600, 244.022 222, 242.971 222 C 239.649 222, 230.624 226.721, 227.342 230.176 C 221.426 236.404, 219.753 240.653, 219.791 249.360 C 219.810 253.686, 220.315 257.715, 220.913 258.313 C 221.511 258.911, 222 260.633, 222 262.141 C 222 263.649, 222.400 265.129, 222.890 265.432 C 223.379 265.734, 224.012 267.448, 224.296 269.241 C 224.581 271.033, 225.275 274.075, 225.839 276 C 226.403 277.925, 228.504 285.800, 230.509 293.500 C 232.514 301.200, 234.611 309.075, 235.170 311 C 235.729 312.925, 236.419 315.967, 236.704 317.759 C 236.988 319.552, 237.621 321.266, 238.110 321.568 C 238.600 321.871, 239 323.415, 239 325 C 239 326.585, 239.400 328.129, 239.890 328.432 C 240.379 328.734, 241.006 330.448, 241.284 332.241 C 241.561 334.033, 243.004 340, 244.489 345.500 C 245.974 351, 247.406 356.625, 247.670 358 C 247.934 359.375, 248.533 361.400, 249 362.500 C 249.467 363.600, 250.077 365.625, 250.355 367 C 250.633 368.375, 251.342 371.188, 251.930 373.250 C 252.519 375.313, 253.481 378.688, 254.070 380.750 C 254.658 382.813, 255.367 385.625, 255.645 387 C 255.923 388.375, 256.533 390.400, 257 391.500 C 257.467 392.600, 258.066 394.625, 258.330 396 C 258.594 397.375, 260.026 403, 261.511 408.500 C 262.996 414, 264.439 419.967, 264.716 421.759 C 264.994 423.552, 265.621 425.266, 266.110 425.568 C 266.600 425.871, 267 427.415, 267 429 C 267 430.585, 267.400 432.129, 267.890 432.432 C 268.379 432.734, 269.012 434.448, 269.296 436.241 C 269.581 438.033, 270.276 441.075, 270.840 443 C 271.404 444.925, 273.513 452.800, 275.527 460.500 C 277.540 468.200, 279.637 476.075, 280.187 478 C 280.736 479.925, 281.419 482.967, 281.704 484.759 C 281.988 486.552, 282.621 488.266, 283.110 488.568 C 283.600 488.871, 284 490.415, 284 492 C 284 493.585, 284.400 495.129, 284.890 495.432 C 285.379 495.734, 286.012 497.448, 286.296 499.241 C 286.581 501.033, 287.269 504.075, 287.825 506 C 289.113 510.455, 293.890 528.401, 295.013 533 C 295.856 536.457, 297.151 541.179, 299.126 548 C 299.683 549.925, 300.367 552.625, 300.645 554 C 300.923 555.375, 301.533 557.400, 302 558.500 C 302.467 559.600, 303.071 561.625, 303.342 563 C 303.614 564.375, 305.051 570, 306.536 575.500 C 308.021 581, 309.457 586.967, 309.728 588.759 C 309.999 590.552, 310.621 592.266, 311.110 592.568 C 311.600 592.871, 312 594.415, 312 596 C 312 597.585, 312.400 599.129, 312.890 599.432 C 313.379 599.734, 314.012 601.448, 314.296 603.241 C 314.581 605.033, 315.266 608.075, 315.818 610 C 316.370 611.925, 318.184 618.675, 319.849 625 C 321.515 631.325, 323.635 639.200, 324.562 642.500 C 325.488 645.800, 326.465 649.967, 326.734 651.759 C 327.002 653.552, 327.621 655.266, 328.110 655.568 C 328.600 655.871, 329 657.415, 329 659 C 329 660.585, 329.400 662.129, 329.890 662.432 C 330.379 662.734, 331.012 664.448, 331.296 666.241 C 331.581 668.033, 332.275 671.075, 332.839 673 C 333.403 674.925, 335.504 682.800, 337.509 690.500 C 339.514 698.200, 341.569 705.962, 342.077 707.750 C 342.585 709.538, 343.481 712.688, 344.070 714.750 C 344.658 716.813, 345.367 719.625, 345.645 721 C 345.923 722.375, 346.533 724.400, 347 725.500 C 347.467 726.600, 348.064 728.625, 348.326 730 C 351.247 745.319, 357.224 753.693, 367.539 756.918 C 372.062 758.332, 383.362 757.926, 389.250 756.139 C 391.313 755.512, 394.688 754.525, 396.750 753.944 C 398.813 753.363, 401.850 752.488, 403.500 752 C 408.995 750.375, 414.462 748.876, 418 748.025 C 422.081 747.043, 440.016 742.287, 444.750 740.931 C 446.538 740.419, 449.462 739.575, 451.250 739.056 C 453.038 738.537, 456.188 737.637, 458.250 737.056 C 460.313 736.475, 463.462 735.580, 465.250 735.067 C 470.873 733.452, 488.389 728.888, 491 728.357 C 492.375 728.078, 494.400 727.467, 495.500 727 C 496.600 726.533, 498.625 725.923, 500 725.645 C 501.375 725.367, 504.075 724.683, 506 724.126 C 513.895 721.840, 517.629 720.835, 520 720.355 C 521.375 720.077, 523.400 719.461, 524.500 718.986 C 525.600 718.512, 531.450 716.945, 537.500 715.505 C 543.550 714.065, 549.281 712.462, 550.236 711.943 C 551.191 711.424, 553.077 711, 554.427 711 C 555.777 711, 557.129 710.600, 557.432 710.110 C 557.734 709.621, 559.448 708.988, 561.241 708.704 C 563.033 708.419, 566.075 707.720, 568 707.149 C 573.879 705.408, 579.326 703.909, 583 703.021 C 586.108 702.270, 594.408 700.077, 606.500 696.810 C 613.907 694.809, 617.488 693.749, 619.797 692.872 C 621.060 692.392, 623.171 692, 624.488 692 C 625.805 692, 627.128 691.602, 627.429 691.115 C 627.729 690.629, 629.219 689.981, 630.738 689.677 C 635.931 688.636, 654.700 683.809, 664.750 680.931 C 666.538 680.419, 669.575 679.550, 671.500 679 C 673.425 678.450, 676.688 677.513, 678.750 676.918 C 680.813 676.322, 683.817 675.585, 685.427 675.278 C 687.869 674.813, 687.040 674.408, 680.427 672.833 C 670.108 670.374, 665.033 669, 662.203 667.896 C 660.940 667.403, 658.829 667, 657.512 667 C 656.195 667, 654.840 666.550, 654.500 666 C 654.160 665.450, 652.585 665, 651 665 C 649.415 665, 647.871 664.600, 647.568 664.110 C 647.266 663.621, 645.552 662.979, 643.759 662.683 C 639.704 662.013, 635.233 660.920, 622.500 657.486 C 617 656.002, 611.033 654.561, 609.241 654.284 C 607.448 654.006, 605.734 653.379, 605.432 652.890 C 605.129 652.400, 603.928 652, 602.762 652 C 601.596 652, 599.260 651.580, 597.571 651.068 C 595.882 650.555, 592.475 649.604, 590 648.954 C 587.525 648.304, 584.600 647.407, 583.500 646.961 C 582.400 646.515, 580.375 645.938, 579 645.677 C 573.045 644.549, 552.520 639.189, 549.203 637.896 C 547.940 637.403, 545.829 637, 544.512 637 C 543.195 637, 541.871 636.600, 541.568 636.110 C 541.266 635.621, 539.552 634.988, 537.759 634.704 C 535.967 634.419, 532.700 633.664, 530.500 633.027 C 528.300 632.389, 524.925 631.483, 523 631.013 C 521.075 630.543, 515 628.945, 509.500 627.461 C 504 625.978, 498.033 624.543, 496.241 624.272 C 494.448 624.001, 492.734 623.379, 492.432 622.890 C 492.129 622.400, 490.360 622, 488.500 622 C 486.640 622, 484.840 621.550, 484.500 621 C 484.160 620.450, 482.585 620, 481 620 C 479.415 620, 477.871 619.600, 477.568 619.110 C 477.266 618.621, 475.552 617.988, 473.759 617.704 C 471.967 617.419, 468.700 616.664, 466.500 616.027 C 464.300 615.389, 460.925 614.507, 459 614.068 C 457.075 613.628, 451 612.038, 445.500 610.534 C 440 609.030, 434.375 607.586, 433 607.324 C 431.625 607.063, 429.600 606.467, 428.500 606 C 427.400 605.533, 425.262 604.892, 423.750 604.575 C 422.238 604.259, 419.762 603.741, 418.250 603.425 C 416.738 603.108, 414.600 602.467, 413.500 602 C 412.400 601.533, 410.375 600.929, 409 600.658 C 407.625 600.386, 402 598.961, 396.500 597.491 C 391 596.020, 384.925 594.465, 383 594.034 C 377.849 592.881, 367.580 588.640, 366 587.012 C 365.725 586.729, 364.189 585.823, 362.586 584.998 C 358.779 583.041, 345.914 570.152, 344.036 566.414 C 343.231 564.811, 341.864 562.375, 341 561 C 339.366 558.402, 338.085 554.769, 336.009 546.835 C 334.672 541.730, 335.132 528.129, 336.865 521.500 C 337.440 519.300, 338.190 516.150, 338.531 514.500 C 338.872 512.850, 339.533 510.600, 340 509.500 C 340.467 508.400, 341.077 506.375, 341.355 505 C 341.633 503.625, 342.372 500.700, 342.997 498.500 C 343.622 496.300, 344.517 492.925, 344.987 491 C 345.457 489.075, 347.043 483, 348.512 477.500 C 349.981 472, 351.562 465.925, 352.025 464 C 352.488 462.075, 353.378 458.700, 354.003 456.500 C 354.628 454.300, 355.367 451.375, 355.645 450 C 355.923 448.625, 356.533 446.600, 357 445.500 C 357.467 444.400, 358.077 442.375, 358.355 441 C 358.633 439.625, 359.308 436.925, 359.854 435 C 361.649 428.671, 368.152 403.553, 368.657 401 C 368.928 399.625, 369.533 397.600, 370 396.500 C 370.467 395.400, 371.077 393.375, 371.355 392 C 371.633 390.625, 372.372 387.700, 372.997 385.500 C 373.622 383.300, 374.517 379.925, 374.987 378 C 375.457 376.075, 377.043 370, 378.512 364.500 C 379.981 359, 381.562 352.925, 382.025 351 C 382.488 349.075, 383.378 345.700, 384.003 343.500 C 384.628 341.300, 385.367 338.375, 385.645 337 C 385.923 335.625, 386.533 333.600, 387 332.500 C 387.467 331.400, 388.077 329.375, 388.355 328 C 388.633 326.625, 389.308 323.925, 389.854 322 C 391.649 315.671, 398.152 290.553, 398.657 288 C 398.928 286.625, 399.533 284.600, 400 283.500 C 400.467 282.400, 401.108 280.262, 401.425 278.750 C 401.741 277.238, 402.259 274.762, 402.575 273.250 C 402.892 271.738, 403.533 269.600, 404 268.500 C 404.467 267.400, 405.077 265.375, 405.355 264 C 405.633 262.625, 406.302 259.925, 406.842 258 C 407.381 256.075, 408.776 250.675, 409.942 246 C 412.936 233.994, 414.078 229.835, 415.104 227.203 C 415.597 225.940, 416 223.829, 416 222.512 C 416 221.195, 416.450 219.840, 417 219.500 C 417.550 219.160, 418 217.585, 418 216 C 418 214.415, 418.400 212.871, 418.890 212.568 C 419.379 212.266, 420.021 210.552, 420.317 208.759 C 420.967 204.826, 421.996 200.636, 425.539 187.500 C 429.817 171.638, 429.881 169.492, 426 172 M 214 406.957 C 207.675 413.466, 176.218 445.387, 144.096 477.891 C 111.974 510.395, 84.736 538.454, 83.568 540.245 C 80.815 544.466, 79 549.841, 79 553.774 C 79 556.749, 79.558 558.567, 82.596 565.500 C 83.319 567.150, 164.818 649.370, 263.705 748.210 C 405.041 889.479, 444.463 928.352, 448 929.938 C 451.216 931.380, 454.640 931.958, 460 931.961 C 473.845 931.971, 452.337 952.085, 675.750 730.193 C 701.581 704.539, 707.472 698.354, 704.088 700.446 C 703.586 700.756, 697.849 702.393, 691.338 704.083 C 680.153 706.988, 678.034 707.562, 669.500 710 C 667.575 710.550, 664.425 711.450, 662.500 712 C 653.084 714.690, 651.248 715.194, 648 715.975 C 641.396 717.564, 623.275 722.441, 614 725.126 C 612.075 725.683, 609.375 726.367, 608 726.645 C 606.625 726.923, 604.600 727.515, 603.500 727.961 C 601.670 728.703, 598.831 729.509, 589 732.080 C 587.075 732.584, 581.900 733.937, 577.500 735.087 C 568.905 737.335, 564.391 738.564, 559.250 740.056 C 555.884 741.034, 551.700 742.232, 545.250 744.066 C 543.188 744.653, 539.925 745.520, 538 745.993 C 532.515 747.340, 504.781 754.870, 497.250 757.056 C 489.960 759.173, 486.326 760.175, 483 760.987 C 476.362 762.608, 456.803 767.863, 449.250 770.056 C 441.077 772.429, 438.327 773.174, 436 773.645 C 434.625 773.923, 432.600 774.533, 431.500 775 C 430.400 775.467, 428.375 776.071, 427 776.342 C 424.474 776.840, 407.458 781.310, 401 783.172 C 390.013 786.339, 368.304 787.491, 360.785 785.306 C 343.031 780.146, 326.153 763.305, 321.928 746.535 C 321.507 744.866, 319.966 739, 318.502 733.500 C 317.039 728, 315.457 721.925, 314.987 720 C 314.517 718.075, 313.611 714.700, 312.973 712.500 C 312.336 710.300, 311.581 707.033, 311.296 705.241 C 311.012 703.448, 310.379 701.734, 309.890 701.432 C 309.400 701.129, 309 699.585, 309 698 C 309 696.415, 308.600 694.871, 308.110 694.568 C 307.621 694.266, 306.994 692.552, 306.716 690.759 C 306.439 688.967, 304.986 683, 303.488 677.500 C 301.990 672, 300.543 666.033, 300.272 664.241 C 300.001 662.448, 299.379 660.734, 298.890 660.432 C 298.400 660.129, 298 658.585, 298 657 C 298 655.415, 297.600 653.871, 297.110 653.568 C 296.621 653.266, 295.988 651.552, 295.704 649.759 C 295.419 647.967, 294.664 644.700, 294.027 642.500 C 293.389 640.300, 292.483 636.925, 292.013 635 C 290.890 630.401, 286.113 612.455, 284.825 608 C 284.269 606.075, 283.581 603.033, 283.296 601.241 C 283.012 599.448, 282.379 597.734, 281.890 597.432 C 281.400 597.129, 281 595.585, 281 594 C 281 592.415, 280.600 590.871, 280.110 590.568 C 279.621 590.266, 278.988 588.552, 278.704 586.759 C 278.419 584.967, 277.725 581.925, 277.161 580 C 276.597 578.075, 274.496 570.200, 272.491 562.500 C 270.486 554.800, 268.389 546.925, 267.830 545 C 267.271 543.075, 266.581 540.033, 266.296 538.241 C 266.012 536.448, 265.379 534.734, 264.890 534.432 C 264.400 534.129, 264 532.585, 264 531 C 264 529.415, 263.600 527.871, 263.110 527.568 C 262.621 527.266, 261.994 525.552, 261.716 523.759 C 261.439 521.967, 259.996 516, 258.511 510.500 C 257.026 505, 255.594 499.375, 255.330 498 C 255.066 496.625, 254.467 494.600, 254 493.500 C 253.533 492.400, 252.923 490.375, 252.645 489 C 252.367 487.625, 251.683 484.925, 251.126 483 C 249.209 476.377, 247.865 471.492, 247 468 C 246.523 466.075, 245.690 462.925, 245.148 461 C 241.912 449.501, 238.720 437.057, 238.284 434.241 C 238.006 432.448, 237.379 430.734, 236.890 430.432 C 236.400 430.129, 236 428.585, 236 427 C 236 425.415, 235.600 423.871, 235.110 423.568 C 234.621 423.266, 233.988 421.552, 233.704 419.759 C 233.419 417.967, 232.717 414.925, 232.144 413 C 231.571 411.075, 230.303 406.238, 229.326 402.250 C 228.349 398.262, 227.089 395.027, 226.525 395.061 C 225.961 395.094, 220.325 400.448, 214 406.957" stroke="none" fill="#3738e2" fill-rule="evenodd"/><path d="M 1780.597 257.993 C 1768.514 261.852, 1757.774 272.288, 1754.484 283.367 C 1752.573 289.801, 1752.585 301.241, 1754.510 307.722 C 1757.579 318.057, 1768.873 329.571, 1779.242 332.935 C 1801.585 340.186, 1824.968 331.418, 1833.605 312.551 C 1842.524 293.071, 1836.430 271.953, 1818.932 261.701 C 1809.121 255.952, 1792.131 254.309, 1780.597 257.993 M 3328 343.076 L 3328 414.151 3321.250 408.208 C 3304.977 393.881, 3288.927 385.948, 3265.919 380.861 C 3252.193 377.827, 3224.907 377.595, 3209.500 380.382 C 3157.324 389.820, 3117.190 424.657, 3102.095 473.613 C 3091.837 506.881, 3093.234 550.341, 3105.551 581.126 C 3114.922 604.549, 3129.384 623.627, 3148.932 638.351 C 3173.918 657.172, 3204.301 667, 3237.500 667 C 3271.841 667, 3300.769 656.398, 3322.465 635.861 L 3331 627.782 3331 645.391 L 3331 663 3362.500 663 L 3394 663 3394 467.500 L 3394 272 3361 272 L 3328 272 3328 343.076 M 1122 289.065 C 1040.648 293.895, 971.787 344.437, 948.043 416.745 C 935.339 455.435, 935.363 502, 948.107 540.542 C 952.531 553.922, 964.456 577.353, 972.745 588.954 C 1002.636 630.787, 1053.828 660.214, 1108.281 666.864 L 1116.063 667.814 1128.809 680.157 C 1175.553 725.422, 1206.730 741.633, 1251 743.693 C 1289.827 745.499, 1322.801 733.127, 1348.404 707.146 L 1355.307 700.140 1340.511 682.320 C 1332.373 672.519, 1325.135 663.872, 1324.426 663.104 C 1323.341 661.929, 1322.138 662.622, 1316.818 667.488 C 1296.081 686.457, 1269.682 694.599, 1245.500 689.485 C 1232.519 686.739, 1213.773 675.691, 1202.742 664.285 L 1198.984 660.399 1206.242 658.150 C 1222.486 653.116, 1244.588 641.986, 1260.163 630.998 C 1271.517 622.988, 1289.139 606.244, 1297.542 595.483 C 1324.791 560.587, 1337.473 519.351, 1335.673 471.500 C 1333.823 422.304, 1317.327 381.406, 1286.219 348.892 C 1270.523 332.486, 1254.523 320.840, 1232.924 310.101 C 1199.506 293.485, 1163.274 286.614, 1122 289.065 M 2356.500 289.055 C 2311.912 291.600, 2271.560 307.451, 2238.012 335.598 C 2220.085 350.639, 2205.701 369.118, 2194.496 391.500 C 2182.348 415.767, 2176.956 435.610, 2174.746 464.173 C 2171.970 500.057, 2179.041 535.766, 2195.108 567 C 2213.212 602.198, 2240.440 629.185, 2275.597 646.778 C 2321.808 669.904, 2380.996 675.018, 2433.292 660.403 C 2455.980 654.062, 2479.427 642.023, 2496.500 627.947 C 2505.451 620.568, 2518.349 607.493, 2517.869 606.285 C 2517.666 605.775, 2507.696 596.001, 2495.714 584.567 L 2473.928 563.776 2464.714 572.638 C 2437.554 598.761, 2402.655 610.504, 2362.500 607.034 C 2326.089 603.886, 2296.110 589.302, 2274.448 564.198 C 2230.116 512.821, 2235.084 426.090, 2284.878 382.133 C 2307.083 362.531, 2331.402 352.633, 2363.780 350.018 C 2403.488 346.811, 2438.416 358.942, 2467.319 385.980 L 2474.077 392.301 2476.788 389.796 C 2496.968 371.157, 2517.578 351.589, 2517.870 350.791 C 2518.405 349.330, 2501.799 332.817, 2492.979 326.039 C 2457.435 298.723, 2410.404 285.978, 2356.500 289.055 M 1124.008 350.117 C 1071.513 354.773, 1029.768 387.475, 1014.596 435.829 C 1005.830 463.768, 1006.195 499.138, 1015.518 525.188 C 1029.538 564.356, 1061.871 593.400, 1102.650 603.452 C 1137.664 612.084, 1178.272 606.696, 1206.467 589.676 C 1236.106 571.785, 1256.429 543.048, 1263.520 509 C 1267.350 490.615, 1267.170 464.671, 1263.086 446.433 C 1252.437 398.871, 1217.850 364.321, 1169.520 352.970 C 1162.292 351.272, 1140.535 348.828, 1135.500 349.148 C 1134.400 349.218, 1129.229 349.654, 1124.008 350.117 M 2668 378.655 C 2632.109 382.095, 2604.198 389.817, 2582.067 402.431 C 2576.344 405.694, 2566 412.766, 2566 413.417 C 2566 413.804, 2591.169 460.443, 2591.660 460.965 C 2591.900 461.220, 2592.712 460.995, 2593.466 460.465 C 2611.300 447.908, 2623.625 442.374, 2645 437.325 C 2660.423 433.682, 2686.518 432.974, 2700.274 435.825 C 2719.740 439.859, 2733.627 449.690, 2740.600 464.373 C 2744.569 472.730, 2746.958 482.940, 2746.983 491.648 L 2747 497.796 2698.750 498.269 C 2647.913 498.767, 2639.437 499.412, 2622.009 504.108 C 2583.217 514.559, 2561.397 538.234, 2558.052 573.501 C 2553.377 622.788, 2588.383 659.881, 2645.500 666.162 C 2658.817 667.626, 2681.894 666.606, 2694.260 664.007 C 2715.887 659.460, 2732.825 650.546, 2744.922 637.344 L 2751 630.711 2751 646.855 L 2751 663 2782.500 663 L 2814 663 2814 578.554 C 2814 525.986, 2813.588 489.275, 2812.908 481.304 C 2811.384 463.438, 2807.337 448.145, 2800.482 434.348 C 2785.247 403.687, 2754.480 384.973, 2710.460 379.593 C 2698.891 378.180, 2677.821 377.714, 2668 378.655 M 3040.352 379.025 C 3022.453 380.910, 3003.537 386.607, 2990.605 394.005 C 2981.949 398.958, 2970.414 408.698, 2965.265 415.401 L 2961.500 420.302 2961.229 400.651 L 2960.958 381 2928.979 381 L 2897 381 2897 522 L 2897 663 2930.500 663 L 2964 663 2964.006 589.250 C 2964.012 510.554, 2964.331 504.288, 2969.050 490.033 C 2976.967 466.115, 2992.789 451.196, 3018.500 443.404 C 3026.682 440.924, 3029.021 440.668, 3044.250 440.588 L 3061 440.500 3061 409.250 L 3061 378 3054.250 378.136 C 3050.537 378.210, 3044.283 378.610, 3040.352 379.025 M 1400 464.826 C 1400 516.463, 1400.408 552.847, 1401.062 559.576 C 1406.824 618.825, 1437.201 653.682, 1492.626 664.644 C 1505.416 667.174, 1536.346 667.194, 1547.768 664.680 C 1572.210 659.302, 1591.514 649.359, 1606.250 634.558 L 1612 628.783 1612 645.891 L 1612 663 1644 663 L 1676 663 1676 522 L 1676 381 1642.500 381 L 1609 381 1608.997 455.750 C 1608.994 532.173, 1608.594 542.150, 1605.017 555 C 1597.923 580.484, 1581.022 598.085, 1556.984 605.024 C 1546.537 608.039, 1527.438 608.791, 1516.054 606.636 C 1488.835 601.481, 1472.297 582.202, 1468.053 550.678 C 1467.389 545.743, 1467 512.983, 1467 461.928 L 1467 381 1433.500 381 L 1400 381 1400 464.826 M 1762 522 L 1762 663 1795 663 L 1828 663 1828 522.657 L 1828 382.313 1812.250 381.660 C 1803.588 381.301, 1788.737 381.005, 1779.250 381.003 L 1762 381 1762 522 M 1894 404.375 C 1894 417.231, 1894.281 429.156, 1894.625 430.875 L 1895.250 434 1953.375 434.138 C 1985.344 434.214, 2018.874 434.552, 2027.887 434.888 L 2044.274 435.500 1967.637 528.225 L 1891 620.950 1891 641.975 L 1891 663 2013.017 663 L 2135.033 663 2134.767 636.750 L 2134.500 610.500 2055.228 610 L 1975.956 609.500 2052.934 516.500 L 2129.912 423.500 2129.956 402.914 L 2130 382.329 2060.835 381.664 C 2022.794 381.299, 1969.694 381, 1942.835 381 L 1894 381 1894 404.375 M 3227 436.516 C 3211.390 439.706, 3198.209 446.791, 3186.962 458.038 C 3175.781 469.219, 3169 481.670, 3164.846 498.644 C 3162.093 509.894, 3161.812 532.613, 3164.291 543.552 C 3172.645 580.414, 3198.337 604.410, 3234.454 609.083 C 3277.881 614.703, 3314.708 589.973, 3326.164 547.500 C 3328.688 538.142, 3329.642 517.857, 3328.071 506.939 C 3322.820 470.431, 3297.604 442.994, 3263.265 436.424 C 3254.143 434.678, 3235.765 434.725, 3227 436.516 M 2656.500 544.480 C 2640.527 547.446, 2632.011 553.168, 2626.318 564.761 C 2623.860 569.767, 2623.500 571.651, 2623.500 579.518 C 2623.500 587.693, 2623.807 589.160, 2626.792 595.226 C 2634.192 610.266, 2650.896 618, 2675.977 618 C 2694.445 618, 2708.616 614.135, 2722.243 605.381 C 2730.782 599.896, 2737.050 593.391, 2742.339 584.526 L 2746.500 577.552 2746.814 560.276 L 2747.129 543 2705.314 543.090 C 2675.615 543.154, 2661.472 543.557, 2656.500 544.480" stroke="none" fill="#040404" fill-rule="evenodd"/></svg>